<?xml version="1.0" encoding="UTF-8"?>
<!DOCTYPE svg PUBLIC "-//W3C//DTD SVG 1.1//EN" "http://www.w3.org/Graphics/SVG/1.1/DTD/svg11.dtd">
<!-- Creator: CorelDRAW 2017 -->
<svg xmlns="http://www.w3.org/2000/svg" xml:space="preserve" width="190.89mm" height="37.26mm" version="1.1" style="shape-rendering:geometricPrecision; text-rendering:geometricPrecision; image-rendering:optimizeQuality; fill-rule:evenodd; clip-rule:evenodd"
viewBox="0 0 19089 3726"
 xmlns:xlink="http://www.w3.org/1999/xlink">
 <defs>
  <style type="text/css">
   <![CDATA[
    .fil0 {fill:#FEFEFE}
    .fil1 {fill:#F5D327}
   ]]>
  </style>
 </defs>
 <g id="Layer_x0020_1">
  <metadata id="CorelCorpID_0Corel-Layer"/>
  <g id="_2406107429760">
   <path class="fil0" d="M105 -12l18989 0 0 3726 -19089 0 0 -3726 100 0zm16240 3526c124,-64 317,-168 465,-250l315 -176 199 119c220,131 410,235 561,307l444 0c24,-163 -31,-495 -167,-1020l-36 -139 120 -112c157,-146 500,-489 647,-645l0 -250c-40,-13 -104,-25 -227,-44 -149,-24 -698,-93 -834,-105 -47,-4 -89,-13 -94,-20 -5,-7 -48,-98 -95,-204 -123,-273 -327,-690 -384,-788l-273 0c-15,24 -32,52 -46,79 -65,120 -273,559 -380,803l-53 121 -258 31c-300,36 -666,87 -800,111 -160,29 -221,83 -183,161 28,58 230,270 520,546 149,142 287,272 307,290l36 32 -61 312c-89,458 -136,745 -136,833l0 9 414 0zm-2876 -3326l-273 0c-15,24 -32,52 -46,79 -65,120 -273,559 -380,803l-53 121 -258 31c-300,36 -666,87 -800,111 -160,29 -221,83 -183,161 28,58 230,270 520,546 149,142 287,272 307,290l36 32 -61 312c-89,458 -136,745 -136,833l0 9 414 0c124,-64 317,-168 465,-250l315 -176 199 119c220,131 410,235 561,307l444 0c24,-163 -31,-495 -167,-1020l-36 -139 120 -112c195,-182 677,-668 714,-720 45,-62 44,-93 -2,-137 -41,-39 -73,-47 -291,-82 -149,-24 -698,-93 -834,-105 -47,-4 -89,-13 -94,-20 -5,-7 -48,-98 -95,-204 -123,-273 -327,-690 -384,-788zm-3790 0l-273 0c-15,24 -32,52 -46,79 -65,120 -273,559 -380,803l-53 121 -258 31c-300,36 -666,87 -800,111 -160,29 -221,83 -183,161 28,58 230,270 520,546 149,142 287,272 307,290l36 32 -61 312c-89,458 -136,745 -136,833l0 9 414 0c124,-64 317,-168 465,-250l315 -176 199 119c220,131 410,235 561,307l444 0c24,-163 -31,-495 -167,-1020l-36 -139 120 -112c195,-182 677,-668 714,-720 45,-62 44,-93 -2,-137 -41,-39 -73,-47 -291,-82 -149,-24 -698,-93 -834,-105 -47,-4 -89,-13 -94,-20 -5,-7 -48,-98 -95,-204 -123,-273 -327,-690 -384,-788zm-3790 0l-273 0c-15,24 -32,52 -46,79 -65,120 -273,559 -379,803l-53 121 -258 31c-300,36 -666,87 -800,111 -160,29 -221,83 -183,161 28,58 230,270 520,546 149,142 287,272 307,290l36 32 -61 312c-89,458 -136,745 -136,833l0 9 414 0c124,-64 317,-168 465,-250l315 -176 199 119c220,131 410,235 561,307l444 0c24,-163 -31,-495 -167,-1020l-36 -139 120 -112c195,-182 677,-668 714,-720 45,-62 44,-93 -2,-137 -41,-39 -73,-47 -291,-82 -149,-24 -698,-93 -834,-105 -47,-4 -89,-13 -94,-20 -5,-7 -48,-98 -95,-204 -123,-273 -327,-690 -384,-788zm-3790 0l-273 0c-15,24 -32,52 -46,79 -65,120 -273,559 -380,803l-53 121 -258 31c-300,36 -666,87 -800,111 -32,6 -59,13 -83,20l0 265c91,100 238,248 420,421 149,142 287,272 307,290l36 32 -61 312c-89,458 -136,745 -136,833l0 9 414 0c124,-64 317,-168 465,-250l315 -176 199 119c220,131 410,235 561,307l444 0c24,-163 -31,-495 -167,-1020l-36 -139 120 -112c195,-182 677,-668 714,-720 45,-62 44,-93 -2,-137 -41,-39 -73,-47 -291,-82 -149,-24 -698,-93 -834,-105 -47,-4 -89,-13 -94,-20 -5,-7 -48,-98 -95,-204 -123,-273 -327,-690 -384,-788z"/>
   <g>
    <path class="fil1" d="M1129 3543c113,-57 348,-182 521,-279l315 -176 199 119c461,275 787,428 909,428 155,0 133,-353 -71,-1141l-36 -139 120 -112c195,-182 677,-668 714,-720 45,-62 44,-93 -2,-137 -41,-39 -73,-47 -291,-82 -149,-24 -698,-93 -834,-105 -47,-4 -89,-13 -94,-20 -5,-7 -48,-98 -95,-204 -129,-287 -348,-733 -392,-800 -67,-101 -140,-124 -208,-65 -20,18 -67,88 -104,156 -65,120 -273,559 -380,803l-53 121 -258 31c-300,36 -666,87 -800,111 -160,29 -221,83 -183,161 28,58 230,270 520,546 149,142 287,272 307,290l36 32 -61 312c-89,458 -136,745 -136,833 0,71 3,80 32,109 55,55 90,47 326,-71l0 0zm1645 -227c-156,-83 -271,-149 -556,-318 -150,-89 -232,-132 -253,-131 -17,0 -103,42 -194,93 -453,257 -781,431 -781,414 0,-23 82,-469 138,-749 60,-302 60,-305 41,-340 -11,-19 -101,-111 -200,-204 -305,-285 -581,-550 -576,-554 6,-6 354,-55 648,-91 398,-48 422,-52 443,-72 11,-10 72,-134 136,-277 166,-370 327,-706 341,-710 15,-5 184,342 410,843 36,79 68,136 84,146 17,11 140,30 373,58 375,45 678,85 701,93 14,5 -122,140 -453,454 -285,270 -321,306 -325,330 -2,14 15,97 37,184 89,342 165,699 188,878l7 52 -41 -17c-22,-9 -97,-47 -167,-84l0 0z"/>
    <path class="fil1" d="M4919 3543c113,-57 348,-182 521,-279l315 -176 199 119c461,275 787,428 909,428 155,0 133,-353 -71,-1141l-36 -139 120 -112c195,-182 677,-668 714,-720 45,-62 44,-93 -2,-137 -41,-39 -73,-47 -291,-82 -149,-24 -698,-93 -834,-105 -47,-4 -89,-13 -94,-20 -5,-7 -48,-98 -95,-204 -129,-287 -348,-733 -392,-800 -67,-101 -140,-124 -208,-65 -20,18 -67,88 -104,156 -65,120 -273,559 -379,803l-53 121 -258 31c-300,36 -666,87 -800,111 -160,29 -221,83 -183,161 28,58 230,270 520,546 149,142 287,272 307,290l36 32 -61 312c-89,458 -136,745 -136,833 0,71 3,80 32,109 55,55 90,47 326,-71l0 0zm1645 -227c-156,-83 -271,-149 -556,-318 -150,-89 -232,-132 -253,-131 -17,0 -103,42 -194,93 -453,257 -781,431 -781,414 0,-23 82,-469 138,-749 60,-302 60,-305 41,-340 -11,-19 -101,-111 -200,-204 -305,-285 -581,-550 -576,-554 6,-6 354,-55 648,-91 398,-48 422,-52 443,-72 11,-10 72,-134 136,-277 166,-370 327,-706 341,-710 15,-5 184,342 410,843 36,79 68,136 84,146 17,11 140,30 373,58 375,45 678,85 701,93 14,5 -122,140 -453,454 -285,270 -321,306 -325,330 -2,14 15,97 37,184 89,342 165,699 188,878l7 52 -41 -17c-22,-9 -97,-47 -167,-84l0 0z"/>
    <path class="fil1" d="M8709 3543c113,-57 348,-182 521,-279l315 -176 199 119c461,275 787,428 909,428 155,0 133,-353 -71,-1141l-36 -139 120 -112c195,-182 677,-668 714,-720 45,-62 44,-93 -2,-137 -41,-39 -73,-47 -291,-82 -149,-24 -698,-93 -834,-105 -47,-4 -89,-13 -94,-20 -5,-7 -48,-98 -95,-204 -129,-287 -348,-733 -392,-800 -67,-101 -140,-124 -208,-65 -20,18 -67,88 -104,156 -65,120 -273,559 -380,803l-53 121 -258 31c-300,36 -666,87 -800,111 -160,29 -221,83 -183,161 28,58 230,270 520,546 149,142 287,272 307,290l36 32 -61 312c-89,458 -136,745 -136,833 0,71 3,80 32,109 55,55 90,47 326,-71l0 0zm1645 -227c-156,-83 -271,-149 -556,-318 -150,-89 -232,-132 -253,-131 -17,0 -103,42 -194,93 -453,257 -781,431 -781,414 0,-23 82,-469 138,-749 60,-302 60,-305 41,-340 -11,-19 -101,-111 -200,-204 -305,-285 -581,-550 -576,-554 6,-6 354,-55 648,-91 398,-48 422,-52 443,-72 11,-10 72,-134 136,-277 166,-370 327,-706 341,-710 15,-5 184,342 410,843 36,79 68,136 84,146 17,11 140,30 373,58 375,45 678,85 701,93 14,5 -122,140 -453,454 -285,270 -321,306 -325,330 -2,14 15,97 37,184 89,342 165,699 188,878l7 52 -41 -17c-22,-9 -97,-47 -167,-84l0 0z"/>
    <path class="fil1" d="M12499 3543c113,-57 348,-182 521,-279l315 -176 199 119c461,275 787,428 909,428 155,0 133,-353 -71,-1141l-36 -139 120 -112c195,-182 677,-668 714,-720 45,-62 44,-93 -2,-137 -41,-39 -73,-47 -291,-82 -149,-24 -698,-93 -834,-105 -47,-4 -89,-13 -94,-20 -5,-7 -48,-98 -95,-204 -129,-287 -348,-733 -392,-800 -67,-101 -140,-124 -208,-65 -20,18 -67,88 -104,156 -65,120 -273,559 -380,803l-53 121 -258 31c-300,36 -666,87 -800,111 -160,29 -221,83 -183,161 28,58 230,270 520,546 149,142 287,272 307,290l36 32 -61 312c-89,458 -136,745 -136,833 0,71 3,80 32,109 55,55 90,47 326,-71l0 0zm1645 -227c-156,-83 -271,-149 -556,-318 -150,-89 -232,-132 -253,-131 -17,0 -103,42 -194,93 -453,257 -781,431 -781,414 0,-23 82,-469 138,-749 60,-302 60,-305 41,-340 -11,-19 -101,-111 -200,-204 -305,-285 -581,-550 -576,-554 6,-6 354,-55 648,-91 398,-48 422,-52 443,-72 11,-10 72,-134 136,-277 166,-370 327,-706 341,-710 15,-5 184,342 410,843 36,79 68,136 84,146 17,11 140,30 373,58 375,45 678,85 701,93 14,5 -122,140 -453,454 -285,270 -321,306 -325,330 -2,14 15,97 37,184 89,342 165,699 188,878l7 52 -41 -17c-22,-9 -97,-47 -167,-84l0 0z"/>
    <path class="fil1" d="M16290 3543c113,-57 348,-182 521,-279l315 -176 199 119c461,275 787,428 909,428 155,0 133,-353 -71,-1141l-36 -139 120 -112c195,-182 677,-668 714,-720 45,-62 44,-93 -2,-137 -41,-39 -73,-47 -291,-82 -149,-24 -698,-93 -834,-105 -47,-4 -89,-13 -94,-20 -5,-7 -48,-98 -95,-204 -129,-287 -348,-733 -392,-800 -67,-101 -140,-124 -208,-65 -20,18 -67,88 -104,156 -65,120 -273,559 -380,803l-53 121 -258 31c-300,36 -666,87 -800,111 -160,29 -221,83 -183,161 28,58 230,270 520,546 149,142 287,272 307,290l36 32 -61 312c-89,458 -136,745 -136,833 0,71 3,80 32,109 55,55 90,47 326,-71l0 0zm1645 -227c-156,-83 -271,-149 -556,-318 -150,-89 -232,-132 -253,-131 -17,0 -103,42 -194,93 -453,257 -781,431 -781,414 0,-23 82,-469 138,-749 60,-302 60,-305 41,-340 -11,-19 -101,-111 -200,-204 -305,-285 -581,-550 -576,-554 6,-6 354,-55 648,-91 398,-48 422,-52 443,-72 11,-10 72,-134 136,-277 166,-370 327,-706 341,-710 15,-5 184,342 410,843 36,79 68,136 84,146 17,11 140,30 373,58 375,45 678,85 701,93 14,5 -122,140 -453,454 -285,270 -321,306 -325,330 -2,14 15,97 37,184 89,342 165,699 188,878l7 52 -41 -17c-22,-9 -97,-47 -167,-84l0 0z"/>
   </g>
  </g>
 </g>
</svg>
